<?xml version="1.0" encoding="UTF-8" standalone="no"?>
<svg
   version="1.1"
   id="Layer_1"
   x="0px"
   y="0px"
   width="100%"
   viewBox="0 0 704 752"
   enable-background="new 0 0 704 752"
   xml:space="preserve"
   sodipodi:docname="vite.svg"
   inkscape:version="1.2.2 (b0a8486541, 2022-12-01)"
   xmlns:inkscape="http://www.inkscape.org/namespaces/inkscape"
   xmlns:sodipodi="http://sodipodi.sourceforge.net/DTD/sodipodi-0.dtd"
   xmlns="http://www.w3.org/2000/svg"
   xmlns:svg="http://www.w3.org/2000/svg"><defs
   id="defs58"><filter
     style="color-interpolation-filters:sRGB;"
     inkscape:label="Cross-smooth"
     id="filter522"
     x="-0.045939417"
     y="-0.03291825"
     width="1.0918788"
     height="1.0658365"><feGaussianBlur
       in="SourceGraphic"
       stdDeviation="3.2329"
       result="blur1"
       id="feGaussianBlur506" /><feComposite
       in="blur1"
       in2="blur1"
       operator="in"
       result="composite1"
       id="feComposite508" /><feComposite
       in="composite1"
       in2="composite1"
       k2="0.2"
       operator="arithmetic"
       result="composite2"
       id="feComposite510" /><feColorMatrix
       in="composite2"
       values="1 0 0 0 0 0 1 0 0 0 0 0 1 0 0 0 0 0 7.53388 0 "
       result="colormatrix1"
       id="feColorMatrix512" /><feGaussianBlur
       stdDeviation="0.153468"
       result="blur2"
       id="feGaussianBlur514" /><feColorMatrix
       in="blur2"
       values="1 0 0 0 0 0 1 0 0 0 0 0 1 0 0 0 0 0 5 -1 "
       result="colormatrix2"
       id="feColorMatrix516" /><feBlend
       in="SourceGraphic"
       in2="colormatrix2"
       stdDeviation="17"
       mode="normal"
       result="blend"
       id="feBlend518" /><feComposite
       in="blend"
       in2="colormatrix2"
       operator="in"
       result="composite3"
       id="feComposite520" /></filter><filter
     style="color-interpolation-filters:sRGB;"
     inkscape:label="Cross-smooth"
     id="filter540"
     x="-0.044168129"
     y="-0.033124081"
     width="1.0883363"
     height="1.0662482"><feGaussianBlur
       in="SourceGraphic"
       stdDeviation="3.2329"
       result="blur1"
       id="feGaussianBlur524" /><feComposite
       in="blur1"
       in2="blur1"
       operator="in"
       result="composite1"
       id="feComposite526" /><feComposite
       in="composite1"
       in2="composite1"
       k2="0.2"
       operator="arithmetic"
       result="composite2"
       id="feComposite528" /><feColorMatrix
       in="composite2"
       values="1 0 0 0 0 0 1 0 0 0 0 0 1 0 0 0 0 0 7.53388 0 "
       result="colormatrix1"
       id="feColorMatrix530" /><feGaussianBlur
       stdDeviation="0.153468"
       result="blur2"
       id="feGaussianBlur532" /><feColorMatrix
       in="blur2"
       values="1 0 0 0 0 0 1 0 0 0 0 0 1 0 0 0 0 0 5 -1 "
       result="colormatrix2"
       id="feColorMatrix534" /><feBlend
       in="SourceGraphic"
       in2="colormatrix2"
       stdDeviation="17"
       mode="normal"
       result="blend"
       id="feBlend536" /><feComposite
       in="blend"
       in2="colormatrix2"
       operator="in"
       result="composite3"
       id="feComposite538" /></filter><filter
     style="color-interpolation-filters:sRGB;"
     inkscape:label="Cross-smooth"
     id="filter558"
     x="-0.050188989"
     y="-0.032852585"
     width="1.100378"
     height="1.0657052"><feGaussianBlur
       in="SourceGraphic"
       stdDeviation="3.2329"
       result="blur1"
       id="feGaussianBlur542" /><feComposite
       in="blur1"
       in2="blur1"
       operator="in"
       result="composite1"
       id="feComposite544" /><feComposite
       in="composite1"
       in2="composite1"
       k2="0.2"
       operator="arithmetic"
       result="composite2"
       id="feComposite546" /><feColorMatrix
       in="composite2"
       values="1 0 0 0 0 0 1 0 0 0 0 0 1 0 0 0 0 0 7.53388 0 "
       result="colormatrix1"
       id="feColorMatrix548" /><feGaussianBlur
       stdDeviation="0.153468"
       result="blur2"
       id="feGaussianBlur550" /><feColorMatrix
       in="blur2"
       values="1 0 0 0 0 0 1 0 0 0 0 0 1 0 0 0 0 0 5 -1 "
       result="colormatrix2"
       id="feColorMatrix552" /><feBlend
       in="SourceGraphic"
       in2="colormatrix2"
       stdDeviation="17"
       mode="normal"
       result="blend"
       id="feBlend554" /><feComposite
       in="blend"
       in2="colormatrix2"
       operator="in"
       result="composite3"
       id="feComposite556" /></filter><filter
     style="color-interpolation-filters:sRGB;"
     inkscape:label="Cross-smooth"
     id="filter576"
     x="-0.048440819"
     y="-0.033084586"
     width="1.0968816"
     height="1.0661692"><feGaussianBlur
       in="SourceGraphic"
       stdDeviation="3.2329"
       result="blur1"
       id="feGaussianBlur560" /><feComposite
       in="blur1"
       in2="blur1"
       operator="in"
       result="composite1"
       id="feComposite562" /><feComposite
       in="composite1"
       in2="composite1"
       k2="0.2"
       operator="arithmetic"
       result="composite2"
       id="feComposite564" /><feColorMatrix
       in="composite2"
       values="1 0 0 0 0 0 1 0 0 0 0 0 1 0 0 0 0 0 7.53388 0 "
       result="colormatrix1"
       id="feColorMatrix566" /><feGaussianBlur
       stdDeviation="0.153468"
       result="blur2"
       id="feGaussianBlur568" /><feColorMatrix
       in="blur2"
       values="1 0 0 0 0 0 1 0 0 0 0 0 1 0 0 0 0 0 5 -1 "
       result="colormatrix2"
       id="feColorMatrix570" /><feBlend
       in="SourceGraphic"
       in2="colormatrix2"
       stdDeviation="17"
       mode="normal"
       result="blend"
       id="feBlend572" /><feComposite
       in="blend"
       in2="colormatrix2"
       operator="in"
       result="composite3"
       id="feComposite574" /></filter></defs><sodipodi:namedview
   id="namedview56"
   pagecolor="#505050"
   bordercolor="#ffffff"
   borderopacity="1"
   inkscape:showpageshadow="0"
   inkscape:pageopacity="0"
   inkscape:pagecheckerboard="1"
   inkscape:deskcolor="#505050"
   showgrid="false"
   inkscape:zoom="1.3656915"
   inkscape:cx="352.20253"
   inkscape:cy="376.73223"
   inkscape:window-width="2560"
   inkscape:window-height="1408"
   inkscape:window-x="1080"
   inkscape:window-y="0"
   inkscape:window-maximized="1"
   inkscape:current-layer="Layer_1" />
<path
   fill="#000000"
   opacity="1.000000"
   stroke="none"
   d=" M563.764832,102.606033   C566.138062,106.291672 571.207703,105.167427 573.005493,108.634163   C575.001465,109.253441 575.377930,106.516785 577.574646,107.301025   C577.665894,107.469604 578.142639,107.982864 578.218384,108.549721   C578.721008,112.310699 579.883911,115.347603 583.963074,116.849258   C590.097839,119.107628 591.242188,124.755966 591.862366,130.370285   C597.305481,129.962387 597.291626,129.962616 597.376709,135.014923   C597.671936,152.563156 598.992554,170.101868 598.232178,187.655853   C597.940918,194.379517 597.763977,201.160980 594.780151,207.564346   C593.590149,210.118240 593.185364,213.491180 593.661194,216.279953   C594.903870,223.561508 592.067444,230.762665 593.819031,238.042465   C594.687195,241.650620 590.324097,243.597610 590.064087,247.462341   C589.775635,251.749130 589.609985,256.057220 589.279114,260.346466   C589.069885,263.059265 591.265991,266.926361 586.271240,267.991760   C585.775146,268.097595 585.529480,270.098053 585.434753,271.241302   C585.010559,276.360077 585.346680,281.649689 584.140076,286.566376   C582.853271,291.809479 580.450256,296.865417 577.917969,301.678680   C576.693481,304.006287 575.592896,306.424744 574.299744,308.732971   C571.717224,313.342499 566.852295,315.526154 563.219238,318.957977   C559.644897,322.334351 556.459473,326.187988 552.486145,329.310303   C546.988098,333.630707 540.544312,335.869202 534.600525,339.091492   C532.482666,340.239624 530.273376,342.123474 527.532776,342.299194   C520.902466,342.724213 514.403320,344.311493 507.687592,344.225006   C504.967957,344.189941 502.143585,344.370789 499.338776,345.206085   C494.568970,346.626587 489.611359,347.125977 484.617004,345.694427   C482.081451,344.967651 479.488037,345.459381 476.873016,346.768646   C475.061676,340.135162 469.585388,338.360596 464.298584,336.534851   C462.033905,335.752747 459.452026,334.909851 458.673279,332.908722   C456.403595,327.076538 452.204224,323.778931 446.696747,321.338928   C444.772430,320.486389 444.750916,317.727844 444.608826,315.504272   C444.414124,312.458557 444.390930,309.638092 440.722717,307.751129   C438.221924,306.464752 438.027435,302.507782 437.792664,299.643951   C436.820984,287.791229 435.689148,275.925049 437.463318,264.019867   C437.893555,261.132874 437.819244,258.115784 437.563171,255.194778   C437.211456,251.182526 436.948425,247.305527 439.361969,243.731888   C439.768860,243.129349 439.832153,242.012527 439.584839,241.295120   C437.627716,235.617661 439.595306,229.984787 439.613403,224.336777   C439.630371,219.035965 439.405090,213.842377 442.817719,209.175522   C444.948730,206.261337 445.341827,202.991669 443.597687,199.350098   C442.619293,197.307327 445.198547,195.074753 444.691010,192.521896   C443.754608,187.811783 443.613342,183.116196 444.266235,178.244141   C445.419159,169.640869 445.324493,160.923981 449.978058,153.006134   C451.728271,150.028259 451.845734,146.090103 452.703918,142.588852   C453.499908,139.341202 455.246033,136.998276 457.606140,134.425522   C460.206970,131.590332 463.836212,128.896378 464.718170,124.642586   C465.341858,121.634583 467.027191,119.970146 470.069885,119.692574   C472.618805,119.460060 474.958405,118.297089 475.335297,115.841560   C475.919067,112.038368 478.272156,111.093887 481.426056,110.442986   C484.826019,109.741310 488.172760,108.762543 491.513458,107.802711   C492.854767,107.417336 495.126434,107.906563 493.988342,104.922401   C493.374512,103.313019 495.077301,102.678749 496.524414,102.842979   C503.569763,103.642578 510.068329,101.010704 516.764587,99.662155   C518.559631,99.300644 520.234253,99.363693 522.053162,99.445259   C531.524902,99.870018 540.955322,100.926872 550.521240,99.959702   C554.684753,99.538742 559.096130,101.570763 563.764832,102.606033  M497.845856,288.738434   C500.964447,291.751282 504.983612,290.197479 508.444092,290.366821   C521.327698,290.997131 525.467224,288.251556 531.145691,276.763794   C534.903870,269.160950 533.792297,260.767700 533.967712,252.831070   C534.218750,241.475601 532.841919,230.116714 538.912476,219.698853   C539.218262,219.174088 539.391113,218.308350 539.177307,217.784470   C536.593262,211.453979 540.489685,205.544220 540.835632,199.408539   C541.254211,191.985382 541.756287,184.220978 543.563293,176.762375   C544.692932,172.100113 541.799988,167.715561 541.635742,163.059753   C541.398010,156.321579 539.480103,153.546539 533.177612,153.060089   C528.885071,152.728745 524.530579,151.920517 520.027039,153.183426   C516.072266,154.292450 510.606842,151.409561 509.107300,158.041077   C509.074371,158.186722 508.502045,158.272110 508.178650,158.280334   C506.016785,158.335297 505.516235,159.638824 505.307739,161.553940   C505.058655,163.842224 504.411072,166.087128 503.905670,168.495956   C500.062286,167.849670 499.545319,170.291855 499.392334,173.317642   C498.919220,182.675339 499.853790,191.855728 497.046082,201.405853   C494.705200,209.367889 494.495544,218.693817 495.958710,227.398361   C496.952087,233.307907 495.122559,238.853256 495.067169,244.953720   C494.049500,244.278122 493.459137,243.886200 492.674652,243.365417   C492.316498,244.602341 491.741852,245.688599 491.725189,246.783356   C491.556213,257.894104 491.295837,269.009277 491.477631,280.116364   C491.538025,283.804962 493.006073,287.319214 497.845856,288.738434  z"
   id="path47"
   style="filter:url(#filter558);fill:#ffffff" />
<path
   fill="#000000"
   opacity="1.000000"
   stroke="none"
   d=" M225.473022,524.717224   C232.807281,529.146057 240.813644,531.127136 247.991547,534.909058   C248.277893,535.059998 248.748398,535.251648 248.768906,535.460205   C249.392746,541.802185 255.531693,541.263000 259.223907,543.675171   C261.177002,544.951233 261.273163,546.468506 261.386414,548.285767   C261.588165,551.522766 262.857635,553.659363 266.555664,553.042542   C267.892914,555.577087 267.241180,558.109375 267.321075,560.541260   C267.438690,564.121887 267.487671,567.526550 271.672974,569.153381   C273.947968,570.037720 273.562958,572.651489 273.731384,574.460388   C274.527985,583.015137 275.175476,591.600159 273.125885,600.110291   C272.934265,600.905884 273.126404,602.043335 271.988251,601.790894   C269.038544,601.136841 269.575684,603.392029 269.429169,604.820374   C269.226501,606.796631 269.201263,608.821838 269.379059,610.801025   C270.100311,618.831543 265.571930,625.283813 263.044830,632.337280   C254.476074,635.103638 255.514862,646.633850 247.355865,649.650757   C241.412445,651.848450 239.111420,657.242859 235.820053,661.821228   C232.909805,665.869568 228.450623,668.330811 223.994705,668.550049   C215.876556,668.949341 208.920700,673.283325 200.920517,673.921814   C188.410980,674.920166 175.773041,677.716858 163.626907,673.048828   C158.186951,670.958191 151.304291,671.451660 147.527145,665.596558   C147.301102,665.246216 146.654068,665.021484 146.188065,664.994446   C141.393311,664.715881 137.488586,662.396179 134.291428,659.146118   C130.155136,654.941406 124.958633,652.066833 120.867386,647.877930   C119.869057,646.855774 119.380722,645.317993 118.732910,643.980957   C118.524986,643.551819 118.672935,642.630981 118.464577,642.567200   C109.836967,639.925903 115.101517,632.135864 112.922859,627.075806   C111.827110,624.530884 111.629051,621.882629 109.053612,620.039612   C104.742622,616.954651 107.141350,612.486145 106.842880,608.240295   C110.228477,608.244263 111.237984,606.640076 111.899414,603.499084   C112.856804,598.952698 116.497879,595.749817 120.774055,594.182251   C128.956100,591.183167 137.308670,588.896484 146.074249,592.393799   C147.674530,593.032227 149.658295,592.716675 151.465912,592.827026   C157.990448,593.225159 161.264847,596.704956 161.372879,603.136108   C161.430984,606.594238 160.877029,610.102661 161.949707,613.826904   C165.327499,613.342590 167.450073,613.807312 167.336700,618.268616   C167.252136,621.596375 177.650223,625.722229 180.937958,623.843689   C183.506012,622.376343 185.139191,621.951843 187.186539,624.709351   C188.322830,626.239807 190.632782,627.592896 192.468033,624.817749   C193.214203,623.689453 194.501846,623.417419 195.593048,623.834167   C202.714355,626.553528 207.080414,622.044067 211.653168,617.924377   C212.620285,617.053162 213.709549,616.149597 214.906738,615.734619   C217.956818,614.677490 218.924454,612.306335 218.929352,609.521790   C218.941940,602.365540 218.749771,595.209045 218.636627,588.052612   C218.591293,585.184814 218.027084,582.721619 214.525238,582.257324   C211.721786,581.885742 212.039505,579.068665 210.999573,577.430298   C206.537277,576.321228 201.209793,577.961731 198.456390,572.427795   C197.769760,571.047729 195.424454,571.411621 193.756210,571.391052   C188.346649,571.324280 182.936829,571.563416 177.570038,570.419312   C172.338165,569.303894 168.233795,565.813599 164.066452,563.089600   C161.566086,561.455322 159.244919,560.197083 156.498337,559.556030   C152.093277,558.528076 152.072144,558.618652 150.434830,554.350098   C147.061081,556.874084 140.941605,552.014404 138.686096,544.741760   C134.979355,545.908752 133.166504,544.439819 133.524338,540.469788   C133.551849,540.164612 133.449493,539.688843 133.236359,539.543701   C124.009529,533.260315 127.288734,523.458435 126.867859,515.035950   C126.465736,506.988586 125.633461,498.858582 126.598175,490.745331   C126.820412,488.876221 127.308037,487.371582 128.337067,485.749207   C130.083893,482.995148 131.912064,480.216461 131.944275,476.617615   C131.958984,474.975281 132.554901,472.954102 134.938110,472.568054   C135.464127,472.482819 136.209534,471.824463 136.309799,471.321533   C138.512131,460.274933 147.061493,453.951202 154.896805,447.530945   C164.021881,440.053833 174.544571,434.357666 185.550400,430.196503   C190.587814,428.291931 196.698837,428.778442 202.293167,428.985443   C205.071793,429.088257 207.787476,429.474854 210.626556,429.126251   C219.231171,428.069641 227.789139,430.329315 236.395050,429.720642   C238.778198,429.552124 240.706528,430.985809 242.280624,431.970673   C249.631943,436.570312 257.857849,439.504059 264.542633,445.583191   C268.762573,449.420807 271.555908,454.323181 275.975037,457.980316   C278.916229,460.414368 277.175812,465.572876 278.279358,469.393097   C278.631683,470.612854 278.334503,472.020203 278.334503,474.298950   C279.675201,472.707458 278.976135,470.310516 281.288666,470.725525   C283.441833,471.111938 283.303833,472.650238 283.313599,474.116150   C283.351349,479.780182 283.390778,485.445557 283.302002,491.108429   C283.257874,493.924652 275.674164,502.517761 272.969055,503.405334   C263.291992,506.580414 253.691650,507.566345 243.870255,503.763702   C241.164078,502.715942 237.991516,502.824951 235.483963,504.994598   C233.116409,503.294739 233.756104,500.767914 233.342346,497.939697   C231.676712,499.635986 232.095291,502.895142 228.624084,502.623657   C226.001541,497.191467 229.381668,490.579285 226.254578,485.172791   C224.205078,484.757385 224.700943,487.269653 222.997910,487.473083   C220.175858,484.985596 222.969391,480.572418 220.061783,478.146820   C212.792053,476.438629 205.293167,478.110565 197.960022,476.983276   C194.840744,476.503754 192.948380,478.516296 190.698151,479.701904   C183.228821,483.637268 180.794388,488.707489 181.716888,497.144623   C182.023468,499.948700 181.899017,502.797363 182.069626,505.619690   C182.227249,508.227448 182.516098,510.827271 182.803589,514.066467   C186.210602,512.362854 188.618149,512.325867 189.640869,516.130737   C190.252670,518.406860 192.554092,516.979431 193.992737,517.384521   C199.871948,519.039917 205.514023,521.352722 211.654358,522.539246   C216.014328,523.381775 220.530945,524.149841 225.473022,524.717224  z"
   id="path49"
   style="filter:url(#filter522);fill:#ffffff" />
<path
   fill="#000000"
   opacity="1.000000"
   stroke="none"
   d=" M527.348816,581.101685   C522.770630,586.608459 523.505005,592.939758 523.369568,599.042847   C523.262390,603.873291 523.414917,608.709412 523.316223,613.540222   C523.248352,616.866028 522.587524,619.915466 520.478210,622.821045   C518.834900,625.084717 517.269775,628.042847 519.509216,631.096619   C520.257507,632.116943 520.408813,633.202759 519.711365,634.353149   C516.977051,638.862549 518.248962,643.682068 518.918335,648.338196   C519.567200,652.851013 519.827698,656.967773 515.107971,659.479553   C513.403015,660.386841 514.241577,661.709839 514.266602,662.964417   C514.398560,669.577271 512.147644,672.438416 506.152924,675.151550   C499.468628,678.176697 492.622406,677.622681 485.603058,677.813660   C480.804291,677.944275 476.162689,676.962341 471.425629,677.218445   C466.720215,677.472717 464.232391,673.740967 466.025482,669.265015   C465.033997,669.037109 464.726593,671.201416 463.696533,670.066895   C463.696533,666.399292 463.970886,662.778809 463.612366,659.222046   C463.309052,656.213074 467.988831,654.343262 465.228394,650.993713   C469.940430,642.358276 466.709686,633.009766 467.621796,624.032043   C467.873291,621.556702 467.147247,618.819519 467.948608,616.590332   C471.736267,606.054138 472.842804,595.795593 470.731384,585.338379   C470.440765,583.899170 470.885040,582.474365 468.065247,582.248108   C464.799896,581.986023 464.671143,578.292725 464.746216,575.530762   C464.904480,569.709961 462.799347,564.157349 463.664276,558.600952   C460.712250,557.568054 461.017487,560.830505 459.173920,560.715942   C458.368256,554.462769 457.484161,548.273071 456.812958,542.060425   C456.544434,539.575073 455.827942,538.222778 453.120819,539.553101   C450.957458,531.179993 450.063599,522.963196 449.624847,514.686035   C449.525604,512.814331 449.293701,511.416931 447.350800,510.168518   C444.778809,508.515961 444.402374,505.217773 443.750580,502.396301   C443.416443,500.950073 443.447052,499.390503 442.603851,498.117096   C439.509857,493.444641 437.000854,488.615601 436.882263,482.787354   C436.842773,480.845062 436.175171,479.267700 433.467285,478.716522   C430.900848,478.194122 431.032104,475.028595 430.769348,472.840210   C430.455383,470.224945 430.695312,467.543182 430.695312,465.037933   C424.565521,462.739655 423.381958,459.114471 424.750061,449.677795   C425.313965,445.788177 427.434052,442.702972 429.033264,439.336700   C429.344513,438.681549 430.348083,437.809204 430.893799,437.897095   C435.622314,438.658600 440.093262,435.307098 444.943634,437.209656   C446.456818,437.803192 448.762207,439.184204 449.886932,436.070709   C450.441620,434.535248 451.942993,435.698578 453.000153,435.615753   C459.981384,435.068695 466.846283,436.467834 473.768799,436.922119   C477.627655,437.175385 476.004913,441.257599 478.204224,443.014252   C480.861725,440.819641 481.869629,442.489990 482.697968,445.188416   C483.909241,449.134247 483.198334,453.129211 483.307922,457.094971   C483.415375,460.983795 484.000671,464.167938 487.405518,467.036835   C490.128784,469.331451 490.108948,473.614838 490.324310,477.257202   C490.569214,481.398468 489.900726,485.587616 491.049988,490.212158   C492.377533,489.379456 492.588837,487.456848 494.556213,487.350647   C496.919739,493.170685 495.316406,499.917511 497.913330,506.335663   C500.873016,503.767700 502.403687,504.172760 502.347260,507.915985   C502.274384,512.747681 502.350403,517.581726 502.263336,522.412964   C502.214203,525.138000 502.572418,527.653809 504.682007,529.817505   C508.508209,527.134460 509.029938,522.847290 510.651154,519.144531   C514.513916,510.322174 518.362793,501.481995 523.967468,493.560394   C524.529663,492.765930 525.329407,491.962799 525.471924,491.075775   C526.777466,482.949585 531.477600,476.265808 535.263306,469.343567   C539.115540,462.299530 541.923645,454.632721 547.051392,448.262573   C548.486816,446.479370 546.942932,443.949463 548.851074,441.513153   C554.166138,434.727020 561.575928,433.633057 569.043640,432.755402   C577.566467,431.753693 586.106079,433.729004 594.749573,433.148987   C599.087036,432.857910 603.443726,436.023987 607.418823,438.405090   C608.673218,439.156464 608.202576,440.720306 607.928345,442.088013   C607.223877,445.601593 605.566467,448.842957 603.511414,451.480957   C599.045593,457.213562 595.437988,463.420410 592.110474,469.788605   C585.188232,483.035950 576.230042,495.127319 570.365112,509.000305   C568.313477,513.853333 564.748535,518.088745 561.720398,522.500366   C558.983948,526.487122 557.994324,531.643005 555.117493,535.103760   C551.901611,538.972534 551.565369,544.741638 546.635620,547.292114   C546.020020,547.610596 545.688965,548.593872 545.357056,549.328369   C542.363220,555.953857 538.315735,562.090698 535.323181,568.600647   C533.195007,573.230347 529.277588,576.233765 527.348816,581.101685  z"
   id="path51"
   style="filter:url(#filter540);fill:#ffffff" />
<path
   fill="#000000"
   opacity="1.000000"
   stroke="none"
   d=" M136.353897,169.174652   C127.143120,169.539337 124.009521,166.444366 124.025635,157.878998   C124.038391,151.097198 123.829437,144.312347 123.592110,137.533279   C123.063835,122.443298 133.689240,112.070076 148.236572,115.374756   C150.328903,115.850075 152.500488,115.867424 154.611221,114.980431   C160.743225,112.403587 167.385849,113.133804 173.658310,113.203407   C178.820602,113.260681 184.317261,112.762268 189.452103,114.572479   C189.890411,114.726990 190.513016,114.711517 190.931290,114.518181   C200.333847,110.172134 210.228577,113.644051 219.845367,112.702934   C223.135529,112.380943 226.462692,112.846153 229.748367,111.849922   C231.445770,111.335266 233.447464,111.284798 235.131882,112.191368   C240.569473,115.117889 246.051834,112.839424 251.474045,112.283066   C252.887177,112.138077 254.376617,111.486183 255.830658,111.691498   C262.724976,112.664932 269.422699,112.082764 276.224670,110.490829   C277.827637,110.115677 281.197693,110.909111 282.899261,112.417877   C285.028595,114.305931 287.479462,114.904701 289.975708,115.659149   C290.695099,124.000610 292.643036,132.468597 290.029968,140.391602   C288.285889,145.679718 287.833221,151.369766 285.700256,156.187683   C283.710175,160.682755 278.790863,164.158798 273.251465,164.852722   C261.252502,166.355850 249.219498,165.136856 237.201813,164.842758   C232.518631,164.728165 230.072678,167.219360 230.297379,171.769165   C230.640884,178.724548 230.170380,185.489365 227.472946,192.149307   C224.671066,199.067169 227.792816,206.493469 226.519577,213.757034   C225.245590,221.024734 226.875793,228.742508 222.638275,235.587463   C221.336853,237.689667 223.454178,240.014145 223.414291,242.376190   C223.268021,251.037079 223.370255,259.701874 223.325668,268.364868   C223.298096,273.720795 222.125610,278.837799 220.530609,283.964905   C219.518906,287.217041 219.171127,290.751129 219.281952,294.294678   C219.393753,297.869690 220.143677,301.649384 217.641373,304.871246   C217.458984,305.106049 217.421005,305.516144 217.441818,305.836548   C218.207993,317.632812 214.593582,329.320679 217.124924,341.238556   C219.015152,350.138000 211.045013,356.637054 203.714737,356.008148   C194.582764,355.224670 185.517105,355.935547 176.443436,355.742462   C172.287720,355.654022 169.264282,356.260223 167.692902,351.577179   C167.415054,350.749207 165.398727,350.504578 163.837418,349.843231   C165.451172,347.199799 163.188705,345.218262 162.626938,342.905853   C160.714615,335.034271 163.524124,327.298492 162.909332,319.491455   C162.485641,314.111206 164.296677,308.831848 163.215378,303.314911   C162.521927,299.776947 166.190018,297.061493 166.813782,293.401642   C167.390778,290.016174 168.371399,286.691376 167.992294,283.249908   C167.625854,279.923462 167.301132,276.643707 168.175720,273.359222   C168.303574,272.879089 168.586029,272.339233 168.474411,271.911072   C166.103882,262.817596 169.890762,254.168289 170.231125,245.333649   C170.552856,236.982574 173.485962,228.808746 172.411469,220.601212   C171.593887,214.356079 172.826385,208.901321 174.758942,203.286224   C174.968887,202.676254 175.272781,201.683548 174.988159,201.380936   C170.989426,197.129654 174.911194,193.487167 175.674881,189.544281   C176.897430,183.232239 177.723511,176.841309 178.630997,170.471451   C178.950409,168.229385 178.315475,166.056915 175.599991,166.544388   C172.448929,167.110031 169.282990,165.818909 166.351913,166.623352   C156.610138,169.297043 146.597931,168.055084 136.353897,169.174652  z"
   id="path53"
   style="filter:url(#filter576);fill:#ffffff" />
</svg>
